<?xml version="1.0" standalone="no"?><!DOCTYPE svg PUBLIC "-//W3C//DTD SVG 1.1//EN" "http://www.w3.org/Graphics/SVG/1.1/DTD/svg11.dtd"><svg t="1595760073431" class="icon" viewBox="0 0 1024 1024" version="1.1" xmlns="http://www.w3.org/2000/svg" p-id="4663" xmlns:xlink="http://www.w3.org/1999/xlink" width="200" height="200"><defs><style type="text/css"></style></defs><path d="M995.0464 342.4768l-153.344-265.6512a25.6 25.6 0 0 0-22.1696-12.8l-0.4608 0.0512-0.256-0.0256H205.3376a25.5488 25.5488 0 0 0-22.1696 12.8c-0.3328 0.5888-0.4608 1.2288-0.7424 1.8432L29.1072 344.2432a25.6768 25.6768 0 0 0 4.352 31.1296l458.624 574.976a25.7024 25.7024 0 0 0 40.0384 0L992.5632 372.992a25.216 25.216 0 0 0 4.7104-10.3168 15.4112 15.4112 0 0 0 0.7168-3.5072 25.472 25.472 0 0 0-2.944-16.6912z m-220.5696-227.2256l-109.056 188.8512-109.0304-188.8512h218.0864z m-153.3696 215.8336h-218.0608l109.0304-188.8512 109.0304 188.8512z m-153.3696-215.8336l-109.0304 188.8512-109.0304-188.8512h218.0608zM204.6464 142.592l109.0304 188.8512H95.616L204.6464 142.592z m-99.8912 240.0512h234.368l116.9408 440.448L104.7552 382.6432z m407.3216 451.9936l-120.0128-451.9936h239.9744l-119.9616 451.9936z m56.0128-11.5712l116.9152-440.448h234.3424L568.0896 823.0656z m142.3872-493.3888l109.056-188.8512 109.0304 188.8512h-218.0864z" p-id="4664"></path></svg>