<?xml version="1.0" standalone="no"?><!DOCTYPE svg PUBLIC "-//W3C//DTD SVG 1.1//EN" "http://www.w3.org/Graphics/SVG/1.1/DTD/svg11.dtd"><svg t="1595467387860" class="icon" viewBox="0 0 1024 1024" version="1.1" xmlns="http://www.w3.org/2000/svg" p-id="5534" xmlns:xlink="http://www.w3.org/1999/xlink" width="200" height="200"><defs><style type="text/css"></style></defs><path d="M512 942.08c-3.413333 0-10.24-3.413333-13.653333-6.826667L10.24 382.293333c-3.413333-6.826667-6.826667-13.653333-3.413333-20.48l136.533333-273.066666c3.413333-6.826667 10.24-10.24 13.653333-10.24h716.8c6.826667 0 13.653333 3.413333 17.066667 10.24l129.706667 273.066666c3.413333 6.826667 3.413333 13.653333-3.413334 17.066667L525.653333 938.666667c-3.413333 3.413333-10.24 3.413333-13.653333 3.413333zM40.96 368.64L512 901.12l471.04-532.48-119.466667-252.586667H167.253333l-126.293333 252.586667z" fill="#ffffff" p-id="5535"></path><path d="M1003.52 389.12H20.48c-10.24 0-17.066667-6.826667-17.066667-17.066667s6.826667-17.066667 17.066667-17.066666h983.04c10.24 0 17.066667 6.826667 17.066667 17.066666s-6.826667 17.066667-17.066667 17.066667z" fill="#ffffff" p-id="5536"></path><path d="M703.146667 389.12c-6.826667 0-10.24-3.413333-13.653334-6.826667l-177.493333-238.933333-177.493333 238.933333c-3.413333 3.413333-6.826667 6.826667-13.653334 6.826667s-10.24-3.413333-13.653333-6.826667L136.533333 126.293333c-6.826667-10.24-3.413333-20.48 3.413334-23.893333 6.826667-6.826667 17.066667-3.413333 23.893333 3.413333L320.853333 341.333333l177.493334-235.52c6.826667-10.24 20.48-10.24 27.306666 0l177.493334 235.52 157.013333-235.52c6.826667-6.826667 17.066667-10.24 23.893333-3.413333 6.826667 6.826667 10.24 17.066667 3.413334 23.893333l-170.666667 256c0 3.413333-6.826667 6.826667-13.653333 6.826667z" fill="#ffffff" p-id="5537"></path><path d="M512 942.08c-6.826667 0-13.653333-3.413333-17.066667-10.24L303.786667 375.466667c-3.413333-10.24 0-17.066667 10.24-20.48 10.24-3.413333 17.066667 0 20.48 10.24L512 873.813333l177.493333-508.586666c3.413333-10.24 13.653333-13.653333 20.48-10.24 10.24 3.413333 13.653333 13.653333 10.24 20.48l-191.146666 556.373333c-3.413333 6.826667-10.24 10.24-17.066667 10.24z" fill="#ffffff" p-id="5538"></path></svg>