<?xml version="1.0" standalone="no"?><!DOCTYPE svg PUBLIC "-//W3C//DTD SVG 1.1//EN" "http://www.w3.org/Graphics/SVG/1.1/DTD/svg11.dtd"><svg t="1595841695432" class="icon" viewBox="0 0 1024 1024" version="1.1" xmlns="http://www.w3.org/2000/svg" p-id="2267" xmlns:xlink="http://www.w3.org/1999/xlink" width="200" height="200"><defs><style type="text/css"></style></defs><path d="M195.833 576.035l-67.037 0c-50.027 0-97.053-24.014-97.053-79.544 0-40.522-1.501-176.597 62.034-176.597 10.506 0 62.534 42.523 130.071 42.523 23.013 0 45.025-4.002 66.537-11.506-1.501 11.006-2.501 22.012-2.501 33.018 0 45.525 14.508 90.55 40.522 128.07C276.378 513.501 229.352 536.014 195.833 576.035zM223.849 319.895c-70.539 0-128.07-57.532-128.07-128.07s57.532-128.07 128.07-128.07 128.07 57.532 128.07 128.07S294.388 319.895 223.849 319.895zM730.627 960.246l-437.24 0c-80.044 0-133.573-48.526-133.573-129.571 0-113.062 26.515-286.657 173.095-286.657 17.009 0 79.043 69.538 179.098 69.538 100.055 0 162.088-69.538 179.098-69.538 146.58 0 173.096 173.596 173.096 286.657C864.201 911.72 810.672 960.246 730.627 960.246zM512.007 576.035c-106.058 0-192.105-86.047-192.105-192.105s86.047-192.105 192.105-192.105c106.059 0 192.106 86.047 192.106 192.105S618.066 576.035 512.007 576.035zM800.166 319.895c-70.539 0-128.07-57.532-128.07-128.07s57.531-128.07 128.07-128.07 128.07 57.532 128.07 128.07S870.705 319.895 800.166 319.895zM895.217 576.035l-67.035 0c-33.52-40.021-80.545-62.534-132.574-64.035 26.016-37.521 40.523-82.545 40.523-128.07 0-11.006-1.002-22.012-2.502-33.018 21.512 7.504 43.523 11.506 66.537 11.506 67.537 0 119.564-42.523 130.07-42.523 63.535 0 62.035 136.075 62.035 176.597C992.271 552.021 945.246 576.035 895.217 576.035z" p-id="2268" fill="#ffffff"></path></svg>